<?xml version="1.0" standalone="no"?>
<!DOCTYPE svg PUBLIC "-//W3C//DTD SVG 20010904//EN"
 "http://www.w3.org/TR/2001/REC-SVG-20010904/DTD/svg10.dtd">
<svg version="1.0" xmlns="http://www.w3.org/2000/svg"
 width="200.000000pt" height="200.000000pt" viewBox="0 0 200.000000 200.000000"
 preserveAspectRatio="xMidYMid meet">
<metadata>
Created by potrace 1.11, written by Peter Selinger 2001-2013
</metadata>
<g transform="translate(0.000000,200.000000) scale(0.100000,-0.100000)"
fill="#000000" stroke="none">
<path d="M855 1957 c-331 -61 -588 -250 -729 -537 -124 -254 -134 -522 -30
-790 80 -205 258 -401 455 -500 209 -106 430 -136 648 -89 31 7 61 13 66 15
44 9 185 73 254 115 89 55 214 171 273 254 68 96 136 244 152 329 2 14 7 29
10 34 10 17 21 132 20 222 -4 356 -212 688 -534 850 -75 38 -209 83 -285 96
-63 10 -245 11 -300 1z"/>
</g>
</svg>
